#tb 0: 1/25
0,          0,          0,        1,   518400, 0x89407f55
0,          2,          2,        1,   518400, 0xeb8d84a1
0,          3,          3,        1,   518400, 0x2121ff57
0,          4,          4,        1,   518400, 0xd81adb3d
0,          5,          5,        1,   518400, 0x01e36aa2
0,          6,          6,        1,   518400, 0x6b802361
0,          7,          7,        1,   518400, 0xc8403c77
0,          8,          8,        1,   518400, 0xdd342b5d
0,          9,          9,        1,   518400, 0x2100eea5
0,         10,         10,        1,   518400, 0x92a22da6
0,         11,         11,        1,   518400, 0x6bacdef7
0,         12,         12,        1,   518400, 0x4a00715f
0,         13,         13,        1,   518400, 0x59b98727
0,         14,         14,        1,   518400, 0xbf912ee1
0,         15,         15,        1,   518400, 0x8c966cd6
0,         16,         16,        1,   518400, 0x2c9a2535
0,         17,         17,        1,   518400, 0x29085c06
0,         18,         18,        1,   518400, 0x46ae6b7d
0,         19,         19,        1,   518400, 0x283100f4
0,         20,         20,        1,   518400, 0x2731b5ff
0,         21,         21,        1,   518400, 0x1132ea54
0,         22,         22,        1,   518400, 0x37cbe539
0,         23,         23,        1,   518400, 0x08ff75cf
0,         24,         24,        1,   518400, 0xafb6bc45
0,         25,         25,        1,   518400, 0x19d3873d
0,         26,         26,        1,   518400, 0xd494a8be
0,         27,         27,        1,   518400, 0x285f41ef
0,         28,         28,        1,   518400, 0xd4b1ffa1
0,         29,         29,        1,   518400, 0xc3876c3a
0,         30,         30,        1,   518400, 0xb73dbb62
